{"glyphs":{"0":{"ha":1221,"x_min":93,"x_max":1329,"o":"m 914 949 q 1220 810 1111 949 q 1288 475 1329 671 q 1077 139 1246 278 q 712 0 909 0 l 509 0 q 202 139 312 0 q 135 475 93 278 q 345 810 176 671 q 711 949 514 949 l 914 949 m 770 271 q 926 331 854 271 q 1017 475 998 391 q 987 618 1034 559 q 857 678 941 678 l 653 678 q 496 618 569 678 q 406 475 424 559 q 435 331 388 391 q 566 271 482 271 l 770 271 z "},"1":{"ha":407,"x_min":102,"x_max":575,"o":"m 575 949 l 373 0 l 102 0 l 246 678 l 178 678 l 304 949 l 575 949 z "},"2":{"ha":1153,"x_min":34,"x_max":1321,"o":"m 914 949 q 1255 638 1321 949 q 784 339 1191 339 l 445 339 q 363 271 377 339 l 1177 271 l 1119 0 l 34 0 l 100 311 q 450 610 163 610 l 909 610 q 983 638 977 610 q 924 678 992 678 l 178 678 l 439 949 l 914 949 z "},"3":{"ha":1153,"x_min":34,"x_max":1321,"o":"m 377 339 l 638 610 l 909 610 q 985 644 977 610 l 992 678 l 178 678 l 439 949 l 1321 949 l 1256 644 q 1152 475 1232 534 q 1184 305 1207 416 q 780 0 1119 0 l 34 0 l 295 271 l 838 271 q 913 305 905 271 q 852 339 920 339 l 377 339 z "},"4":{"ha":1221,"x_min":106,"x_max":1316,"o":"m 987 339 l 916 0 l 644 0 l 716 339 l 106 339 l 372 949 l 643 949 l 503 610 l 774 610 l 846 949 l 1118 949 l 1045 610 l 1316 610 l 1055 339 l 987 339 z "},"5":{"ha":1153,"x_min":34,"x_max":1321,"o":"m 712 0 l 34 0 l 295 271 l 838 271 q 914 311 905 271 q 852 339 920 339 l 393 339 q 170 638 106 339 l 236 949 l 1321 949 l 1263 678 l 450 678 q 503 610 435 610 l 842 610 q 1185 311 1249 610 q 712 0 1119 0 z "},"6":{"ha":1153,"x_min":34,"x_max":1321,"o":"m 517 678 q 435 610 450 678 l 909 610 q 1184 305 1249 610 q 780 0 1119 0 l 373 0 q 99 305 34 0 l 171 644 q 575 949 236 949 l 1321 949 l 1060 678 l 517 678 m 838 271 q 913 305 905 271 q 852 339 920 339 l 445 339 q 370 305 377 339 q 431 271 363 271 l 838 271 z "},"7":{"ha":1153,"x_min":178,"x_max":1321,"o":"m 576 0 l 271 0 l 789 678 l 178 678 l 439 949 l 1321 949 l 576 0 z "},"8":{"ha":1153,"x_min":34,"x_max":1321,"o":"m 909 610 q 985 644 977 610 q 924 678 992 678 l 517 678 q 442 644 450 678 q 503 610 435 610 l 909 610 m 982 949 q 1256 644 1321 949 q 1152 475 1232 534 q 1184 305 1207 416 q 780 0 1119 0 l 373 0 q 99 305 34 0 q 203 475 122 416 q 171 644 147 534 q 575 949 236 949 l 982 949 m 838 271 q 913 305 905 271 l 913 307 q 854 339 920 339 l 447 339 q 370 305 379 339 q 431 271 363 271 l 838 271 z "},"9":{"ha":1153,"x_min":34,"x_max":1321,"o":"m 838 271 q 920 339 905 271 l 445 339 q 171 644 106 339 q 575 949 236 949 l 982 949 q 1256 644 1321 949 l 1184 305 q 780 0 1119 0 l 34 0 l 295 271 l 838 271 m 517 678 q 442 644 450 678 q 503 610 435 610 l 909 610 q 985 644 977 610 q 924 678 992 678 l 517 678 z "},"\u0000":{"ha":0,"x_min":0,"x_max":0,"o":""},"\u001d":{"ha":0,"x_min":0,"x_max":0,"o":""}," ":{"ha":543,"x_min":0,"x_max":0,"o":""}," ":{"ha":543,"x_min":0,"x_max":0,"o":""},"!":{"ha":339,"x_min":51,"x_max":507,"o":"m 106 339 l 236 949 l 507 949 l 377 339 l 106 339 m 170 0 q 82 40 113 0 q 63 136 51 79 q 123 232 75 192 q 227 271 171 271 q 315 232 283 271 q 334 136 346 192 q 274 40 322 79 q 170 0 226 0 z "},"\"":{"ha":678,"x_min":149,"x_max":846,"o":"m 507 949 l 420 543 l 149 543 l 236 949 l 507 949 m 846 949 l 760 543 l 488 543 l 575 949 l 846 949 z "},"#":{"ha":1199,"x_min":63,"x_max":1338,"o":"m 317 407 l 381 543 l 258 543 l 389 814 l 512 814 l 577 949 l 848 949 l 783 814 l 951 814 l 1016 949 l 1287 949 l 1222 814 l 1338 814 l 1207 543 l 1091 543 l 1027 407 l 1143 407 l 1013 136 l 897 136 l 831 0 l 559 0 l 625 136 l 458 136 l 392 0 l 121 0 l 186 136 l 63 136 l 193 407 l 317 407 m 652 543 l 588 407 l 755 407 l 820 543 l 652 543 z "},"$":{"ha":1153,"x_min":34,"x_max":1321,"o":"m 711 949 l 739 1085 l 875 1085 l 846 949 l 1321 949 l 1060 678 l 517 678 q 443 647 450 678 q 503 610 435 610 l 909 610 q 1185 308 1249 610 q 780 0 1119 0 l 644 0 l 615 -136 l 479 -136 l 509 0 l 34 0 l 295 271 l 838 271 q 913 308 905 271 q 852 339 920 339 l 445 339 q 172 647 106 339 q 575 949 236 949 l 711 949 z "},"%":{"ha":949,"x_min":34,"x_max":1118,"o":"m 1118 949 l 340 0 l 34 0 l 814 949 l 1118 949 m 299 610 q 212 650 243 610 q 193 746 180 690 q 252 842 204 802 q 357 882 300 882 q 444 842 413 882 q 464 746 475 802 q 404 650 452 690 q 299 610 355 610 m 794 68 q 707 107 738 68 q 688 203 675 147 q 747 299 699 260 q 852 339 795 339 q 939 299 908 339 q 959 203 970 260 q 899 107 947 147 q 794 68 850 68 z "},"&":{"ha":1424,"x_min":34,"x_max":1520,"o":"m 1190 339 q 1184 305 1187 323 q 780 0 1119 0 l 373 0 q 99 305 34 0 q 203 475 122 416 q 171 644 147 534 q 575 949 236 949 l 982 949 q 1256 644 1321 949 q 1247 610 1252 627 l 1520 610 l 1259 339 l 1190 339 m 910 610 q 985 644 977 610 q 924 678 992 678 l 517 678 q 442 644 450 678 q 503 610 435 610 l 910 610 m 447 339 q 370 305 379 339 q 431 271 363 271 l 838 271 q 913 305 905 271 l 913 307 q 854 339 920 339 l 447 339 z "},"'":{"ha":339,"x_min":149,"x_max":507,"o":"m 507 949 l 420 543 l 149 543 l 236 949 l 507 949 z "},"(":{"ha":543,"x_min":5,"x_max":739,"o":"m 163 610 q 739 1085 264 1085 l 682 814 q 435 610 478 814 l 377 339 q 538 136 334 136 l 479 -136 q 106 339 5 -136 l 163 610 z "},")":{"ha":543,"x_min":5,"x_max":739,"o":"m 581 339 q 5 -136 479 -136 l 63 136 q 309 339 267 136 l 367 610 q 207 814 410 814 l 264 1085 q 638 610 739 1085 l 581 339 z "},"*":{"ha":746,"x_min":149,"x_max":857,"o":"m 606 775 l 755 899 l 831 804 l 680 678 l 857 678 l 827 543 l 651 543 l 749 417 l 632 321 l 536 446 l 498 271 l 363 271 l 400 446 l 251 321 l 175 417 l 326 543 l 149 543 l 178 678 l 355 678 l 257 804 l 374 899 l 470 775 l 507 949 l 643 949 l 606 775 z "},"+":{"ha":746,"x_min":106,"x_max":842,"o":"m 638 610 l 842 610 l 784 339 l 581 339 l 538 136 l 267 136 l 309 339 l 106 339 l 163 610 l 367 610 l 410 814 l 682 814 l 638 610 z "},",":{"ha":475,"x_min":-9,"x_max":470,"o":"m 470 136 l 262 -203 l -9 -203 l 199 136 l 470 136 z "},"-":{"ha":610,"x_min":106,"x_max":706,"o":"m 706 610 l 648 339 l 106 339 l 163 610 l 706 610 z "},"­":{"ha":610,"x_min":106,"x_max":706,"o":"m 706 610 l 648 339 l 106 339 l 163 610 l 706 610 z "},".":{"ha":339,"x_min":51,"x_max":346,"o":"m 170 0 q 82 40 113 0 q 63 136 51 79 q 123 232 75 192 q 227 271 171 271 q 315 232 283 271 q 334 136 346 192 q 274 40 322 79 q 170 0 226 0 z "},"/":{"ha":960,"x_min":5,"x_max":1156,"o":"m 1156 1085 l 288 -136 l 5 -136 l 881 1085 l 1156 1085 z "},":":{"ha":339,"x_min":79,"x_max":461,"o":"m 199 136 q 111 175 142 136 q 92 271 79 215 q 152 367 104 328 q 256 407 200 407 q 344 367 313 407 q 363 271 375 328 q 303 175 351 215 q 199 136 255 136 m 285 543 q 197 582 229 543 q 178 678 166 622 q 238 774 190 734 q 342 814 286 814 q 430 774 399 814 q 450 678 461 734 q 389 582 437 622 q 285 543 341 543 z "},";":{"ha":475,"x_min":20,"x_max":614,"o":"m 614 814 l 556 543 l 285 543 l 342 814 l 614 814 m 498 271 l 291 -68 l 20 -68 l 227 271 l 498 271 z "},";":{"ha":475,"x_min":20,"x_max":614,"o":"m 614 814 l 556 543 l 285 543 l 342 814 l 614 814 m 498 271 l 291 -68 l 20 -68 l 227 271 l 498 271 z "},"<":{"ha":814,"x_min":106,"x_max":982,"o":"m 163 610 l 982 949 l 924 678 l 406 475 l 838 271 l 780 0 l 106 339 l 163 610 z "},"=":{"ha":746,"x_min":63,"x_max":885,"o":"m 885 814 l 827 543 l 149 543 l 207 814 l 885 814 m 799 407 l 741 136 l 63 136 l 121 407 l 799 407 z "},">":{"ha":814,"x_min":34,"x_max":909,"o":"m 852 339 l 34 0 l 92 271 l 610 475 l 178 678 l 236 949 l 909 610 l 852 339 z "},"?":{"ha":1017,"x_min":178,"x_max":1185,"o":"m 509 0 q 421 40 452 0 q 402 136 390 79 q 462 232 414 192 q 566 271 510 271 q 654 232 623 271 q 673 136 685 192 q 613 40 661 79 q 509 0 565 0 m 503 610 l 706 610 q 780 638 774 610 q 721 678 789 678 l 178 678 l 439 949 l 779 949 q 1119 638 1185 949 q 731 409 1074 427 l 716 339 l 445 339 l 503 610 z "},"@":{"ha":1024,"x_min":73,"x_max":1158,"o":"m 583 288 q 437 243 520 243 q 334 288 361 243 q 324 365 315 319 q 338 409 329 385 q 512 625 390 531 q 753 719 633 719 q 909 667 814 719 q 778 469 799 507 q 745 404 757 431 q 740 388 741 395 q 745 374 736 374 q 854 437 795 374 q 951 587 914 500 q 979 663 972 629 q 964 757 991 722 q 821 813 920 813 q 510 694 663 813 q 281 395 357 576 q 257 323 264 357 q 268 206 243 254 q 412 135 304 135 q 534 155 469 135 q 662 222 599 174 l 701 111 q 518 28 616 57 q 342 0 421 0 q 115 106 175 0 q 94 286 73 180 q 126 382 104 331 q 445 786 229 624 q 890 948 661 948 q 1116 857 1055 948 q 1138 695 1158 792 q 1109 607 1129 654 q 928 358 1049 467 q 684 250 806 250 q 583 288 601 250 m 699 601 q 590 543 651 601 q 499 416 529 484 q 494 397 495 406 q 511 372 488 372 q 577 399 543 372 q 642 473 612 426 q 716 595 671 519 q 699 601 713 601 z "},"A":{"ha":1153,"x_min":34,"x_max":1321,"o":"m 949 475 q 721 678 992 678 q 406 475 450 678 l 305 0 l 34 0 l 135 475 q 779 949 236 949 q 1220 475 1321 949 l 1119 0 l 848 0 l 891 203 l 416 203 l 474 475 l 949 475 z "},"B":{"ha":1085,"x_min":34,"x_max":1253,"o":"m 377 339 l 349 203 l 755 203 q 838 271 823 203 q 784 339 852 339 l 377 339 m 111 678 l 372 949 l 914 949 q 1181 610 1253 949 q 1077 441 1158 500 q 1109 271 1133 382 q 712 0 1051 0 l 34 0 l 149 543 l 827 543 q 909 610 895 543 q 857 678 924 678 l 111 678 z "},"C":{"ha":1119,"x_min":93,"x_max":1287,"o":"m 1143 271 l 882 0 l 509 0 q 202 139 312 0 q 135 475 93 278 q 345 810 176 671 q 711 949 514 949 l 1287 949 l 1026 678 l 653 678 q 496 618 569 678 q 406 475 424 559 q 435 331 388 391 q 566 271 482 271 l 1143 271 z "},"D":{"ha":1153,"x_min":34,"x_max":1261,"o":"m 644 0 l 34 0 l 149 543 l 420 543 l 363 271 l 702 271 q 858 331 786 271 q 949 475 930 391 q 920 618 966 559 q 789 678 873 678 l 111 678 l 372 949 l 846 949 q 1152 810 1043 949 q 1220 475 1261 671 q 1009 139 1178 278 q 644 0 841 0 z "},"E":{"ha":1153,"x_min":34,"x_max":1321,"o":"m 1321 949 l 1060 678 l 178 678 l 236 949 l 1321 949 m 1249 610 l 987 339 l 106 339 l 163 610 l 1249 610 m 1177 271 l 916 0 l 34 0 l 92 271 l 1177 271 z "},"F":{"ha":1153,"x_min":34,"x_max":1321,"o":"m 1321 949 l 1060 678 l 450 678 l 435 610 l 1249 610 l 987 339 l 377 339 l 305 0 l 34 0 l 236 949 l 1321 949 z "},"G":{"ha":1153,"x_min":93,"x_max":1321,"o":"m 509 0 q 202 139 312 0 q 135 475 93 278 q 345 810 176 671 q 711 949 514 949 l 1321 949 l 1060 678 l 653 678 q 496 618 569 678 q 406 475 424 559 q 435 331 388 391 q 566 271 482 271 l 905 271 l 963 543 l 1234 543 l 1119 0 l 509 0 z "},"H":{"ha":1153,"x_min":34,"x_max":1321,"o":"m 236 949 l 507 949 l 435 610 l 977 610 l 1050 949 l 1321 949 l 1119 0 l 848 0 l 920 339 l 377 339 l 305 0 l 34 0 l 236 949 z "},"I":{"ha":339,"x_min":34,"x_max":507,"o":"m 507 949 l 305 0 l 34 0 l 236 949 l 507 949 z "},"J":{"ha":744,"x_min":34,"x_max":912,"o":"m 295 271 q 540 475 496 271 l 641 949 l 912 949 l 811 475 q 303 0 710 0 l 34 0 l 295 271 z "},"K":{"ha":1119,"x_min":34,"x_max":1321,"o":"m 385 373 l 305 0 l 34 0 l 236 949 l 507 949 l 428 576 l 948 949 l 1321 949 l 677 475 l 1119 0 l 746 0 l 385 373 z "},"L":{"ha":983,"x_min":34,"x_max":1041,"o":"m 363 271 l 1041 271 l 780 0 l 34 0 l 236 949 l 507 949 l 363 271 z "},"M":{"ha":1695,"x_min":34,"x_max":1864,"o":"m 1024 831 q 1389 949 1185 949 q 1763 475 1864 949 l 1662 0 l 1390 0 l 1491 475 q 1331 678 1535 678 q 1084 475 1128 678 l 983 0 l 712 0 l 813 475 q 653 678 857 678 q 406 475 450 678 l 305 0 l 34 0 l 135 475 q 711 949 236 949 q 1024 831 914 949 z "},"N":{"ha":1153,"x_min":34,"x_max":1321,"o":"m 420 543 l 305 0 l 34 0 l 236 949 l 507 949 l 935 407 l 1050 949 l 1321 949 l 1119 0 l 848 0 l 420 543 z "},"O":{"ha":1221,"x_min":93,"x_max":1329,"o":"m 914 949 q 1220 810 1111 949 q 1288 475 1329 671 q 1077 139 1246 278 q 712 0 909 0 l 509 0 q 202 139 312 0 q 135 475 93 278 q 345 810 176 671 q 711 949 514 949 l 914 949 m 770 271 q 926 331 854 271 q 1017 475 998 391 q 987 618 1034 559 q 857 678 941 678 l 653 678 q 496 618 569 678 q 406 475 424 559 q 435 331 388 391 q 566 271 482 271 l 770 271 z "},"P":{"ha":1153,"x_min":34,"x_max":1321,"o":"m 111 678 l 372 949 l 982 949 q 1249 610 1321 949 q 838 271 1177 271 l 363 271 l 305 0 l 34 0 l 149 543 l 895 543 q 977 610 963 543 q 924 678 992 678 l 111 678 z "},"Q":{"ha":1255,"x_min":93,"x_max":1346,"o":"m 770 271 q 926 331 854 271 q 1017 475 998 391 q 987 618 1034 559 q 857 678 941 678 l 653 678 q 496 618 569 678 q 406 475 424 559 q 435 331 388 391 q 566 271 482 271 l 770 271 m 509 0 q 202 139 312 0 q 135 475 93 278 q 345 810 176 671 q 711 949 514 949 l 914 949 q 1220 810 1111 949 q 1288 475 1329 671 q 1200 271 1264 363 l 1346 271 l 1085 0 l 509 0 z "},"R":{"ha":1153,"x_min":34,"x_max":1321,"o":"m 566 271 l 363 271 l 305 0 l 34 0 l 149 543 l 895 543 q 977 610 963 543 q 924 678 992 678 l 111 678 l 372 949 l 982 949 q 1249 610 1321 949 q 903 275 1184 305 l 1119 0 l 780 0 l 566 271 z "},"S":{"ha":1153,"x_min":34,"x_max":1321,"o":"m 445 339 q 172 647 106 339 q 575 949 236 949 l 1321 949 l 1060 678 l 517 678 q 443 647 450 678 q 503 610 435 610 l 909 610 q 1185 308 1249 610 q 780 0 1119 0 l 34 0 l 295 271 l 838 271 q 913 308 905 271 q 852 339 920 339 l 445 339 z "},"T":{"ha":1119,"x_min":111,"x_max":1321,"o":"m 682 0 l 410 0 l 555 678 l 111 678 l 372 949 l 1321 949 l 1060 678 l 826 678 l 682 0 z "},"U":{"ha":1153,"x_min":34,"x_max":1321,"o":"m 135 475 l 236 949 l 507 949 l 406 475 q 634 271 363 271 q 949 475 905 271 l 1050 949 l 1321 949 l 1220 475 q 576 0 1119 0 q 135 475 34 0 z "},"V":{"ha":1017,"x_min":134,"x_max":1287,"o":"m 339 0 l 134 949 l 406 949 l 559 237 l 1016 949 l 1287 949 l 678 0 l 339 0 z "},"W":{"ha":1695,"x_min":34,"x_max":1864,"o":"m 873 119 q 509 0 712 0 q 135 475 34 0 l 236 949 l 507 949 l 406 475 q 566 271 363 271 q 813 475 770 271 l 914 949 l 1185 949 l 1084 475 q 1244 271 1041 271 q 1491 475 1448 271 l 1592 949 l 1864 949 l 1763 475 q 1187 0 1662 0 q 873 119 983 0 z "},"X":{"ha":1085,"x_min":0,"x_max":1287,"o":"m 474 475 l 202 949 l 541 949 l 689 690 l 948 949 l 1287 949 l 813 475 l 1085 0 l 746 0 l 597 259 l 339 0 l 0 0 l 474 475 z "},"Y":{"ha":1085,"x_min":202,"x_max":1287,"o":"m 502 448 l 202 949 l 509 949 l 687 678 l 979 949 l 1287 949 l 772 442 l 678 0 l 407 0 l 502 448 z "},"Z":{"ha":1153,"x_min":34,"x_max":1321,"o":"m 1321 949 l 1263 678 l 515 271 l 1177 271 l 1119 0 l 34 0 l 92 271 l 772 678 l 111 678 l 372 949 l 1321 949 z "},"[":{"ha":543,"x_min":5,"x_max":739,"o":"m 739 1085 l 682 814 l 478 814 l 334 136 l 538 136 l 479 -136 l 5 -136 l 264 1085 l 739 1085 z "},"\\":{"ha":960,"x_min":264,"x_max":897,"o":"m 540 1085 l 897 -136 l 613 -136 l 264 1085 l 540 1085 z "},"]":{"ha":543,"x_min":5,"x_max":739,"o":"m 739 1085 l 479 -136 l 5 -136 l 63 136 l 267 136 l 410 814 l 207 814 l 264 1085 l 739 1085 z "},"^":{"ha":746,"x_min":163,"x_max":842,"o":"m 779 949 l 842 610 l 570 610 l 538 780 l 435 610 l 163 610 l 372 949 l 779 949 z "},"_":{"ha":882,"x_min":34,"x_max":905,"o":"m 905 271 l 848 0 l 34 0 l 92 271 l 905 271 z "},"`":{"ha":475,"x_min":322,"x_max":657,"o":"m 322 1356 l 593 1356 l 657 1017 l 386 1017 l 322 1356 z "},"a":{"ha":1153,"x_min":34,"x_max":1321,"o":"m 949 475 q 721 678 992 678 q 406 475 450 678 l 305 0 l 34 0 l 135 475 q 779 949 236 949 q 1220 475 1321 949 l 1119 0 l 848 0 l 891 203 l 416 203 l 474 475 l 949 475 z "},"b":{"ha":1085,"x_min":34,"x_max":1253,"o":"m 377 339 l 349 203 l 755 203 q 838 271 823 203 q 784 339 852 339 l 377 339 m 111 678 l 372 949 l 914 949 q 1181 610 1253 949 q 1077 441 1158 500 q 1109 271 1133 382 q 712 0 1051 0 l 34 0 l 149 543 l 827 543 q 909 610 895 543 q 857 678 924 678 l 111 678 z "},"c":{"ha":1119,"x_min":93,"x_max":1287,"o":"m 1143 271 l 882 0 l 509 0 q 202 139 312 0 q 135 475 93 278 q 345 810 176 671 q 711 949 514 949 l 1287 949 l 1026 678 l 653 678 q 496 618 569 678 q 406 475 424 559 q 435 331 388 391 q 566 271 482 271 l 1143 271 z "},"d":{"ha":1153,"x_min":34,"x_max":1261,"o":"m 644 0 l 34 0 l 149 543 l 420 543 l 363 271 l 702 271 q 858 331 786 271 q 949 475 930 391 q 920 618 966 559 q 789 678 873 678 l 111 678 l 372 949 l 846 949 q 1152 810 1043 949 q 1220 475 1261 671 q 1009 139 1178 278 q 644 0 841 0 z "},"e":{"ha":1153,"x_min":34,"x_max":1321,"o":"m 1321 949 l 1060 678 l 178 678 l 236 949 l 1321 949 m 1249 610 l 987 339 l 106 339 l 163 610 l 1249 610 m 1177 271 l 916 0 l 34 0 l 92 271 l 1177 271 z "},"f":{"ha":1153,"x_min":34,"x_max":1321,"o":"m 1321 949 l 1060 678 l 450 678 l 435 610 l 1249 610 l 987 339 l 377 339 l 305 0 l 34 0 l 236 949 l 1321 949 z "},"g":{"ha":1153,"x_min":93,"x_max":1321,"o":"m 509 0 q 202 139 312 0 q 135 475 93 278 q 345 810 176 671 q 711 949 514 949 l 1321 949 l 1060 678 l 653 678 q 496 618 569 678 q 406 475 424 559 q 435 331 388 391 q 566 271 482 271 l 905 271 l 963 543 l 1234 543 l 1119 0 l 509 0 z "},"h":{"ha":1153,"x_min":34,"x_max":1321,"o":"m 236 949 l 507 949 l 435 610 l 977 610 l 1050 949 l 1321 949 l 1119 0 l 848 0 l 920 339 l 377 339 l 305 0 l 34 0 l 236 949 z "},"i":{"ha":339,"x_min":34,"x_max":507,"o":"m 507 949 l 305 0 l 34 0 l 236 949 l 507 949 z "},"j":{"ha":744,"x_min":34,"x_max":912,"o":"m 295 271 q 540 475 496 271 l 641 949 l 912 949 l 811 475 q 303 0 710 0 l 34 0 l 295 271 z "},"k":{"ha":1119,"x_min":34,"x_max":1321,"o":"m 385 373 l 305 0 l 34 0 l 236 949 l 507 949 l 428 576 l 948 949 l 1321 949 l 677 475 l 1119 0 l 746 0 l 385 373 z "},"l":{"ha":983,"x_min":34,"x_max":1041,"o":"m 363 271 l 1041 271 l 780 0 l 34 0 l 236 949 l 507 949 l 363 271 z "},"m":{"ha":1695,"x_min":34,"x_max":1864,"o":"m 1024 831 q 1389 949 1185 949 q 1763 475 1864 949 l 1662 0 l 1390 0 l 1491 475 q 1331 678 1535 678 q 1084 475 1128 678 l 983 0 l 712 0 l 813 475 q 653 678 857 678 q 406 475 450 678 l 305 0 l 34 0 l 135 475 q 711 949 236 949 q 1024 831 914 949 z "},"n":{"ha":1153,"x_min":34,"x_max":1321,"o":"m 420 543 l 305 0 l 34 0 l 236 949 l 507 949 l 935 407 l 1050 949 l 1321 949 l 1119 0 l 848 0 l 420 543 z "},"o":{"ha":1221,"x_min":93,"x_max":1329,"o":"m 914 949 q 1220 810 1111 949 q 1288 475 1329 671 q 1077 139 1246 278 q 712 0 909 0 l 509 0 q 202 139 312 0 q 135 475 93 278 q 345 810 176 671 q 711 949 514 949 l 914 949 m 770 271 q 926 331 854 271 q 1017 475 998 391 q 987 618 1034 559 q 857 678 941 678 l 653 678 q 496 618 569 678 q 406 475 424 559 q 435 331 388 391 q 566 271 482 271 l 770 271 z "},"p":{"ha":1153,"x_min":34,"x_max":1321,"o":"m 111 678 l 372 949 l 982 949 q 1249 610 1321 949 q 838 271 1177 271 l 363 271 l 305 0 l 34 0 l 149 543 l 895 543 q 977 610 963 543 q 924 678 992 678 l 111 678 z "},"q":{"ha":1255,"x_min":93,"x_max":1346,"o":"m 770 271 q 926 331 854 271 q 1017 475 998 391 q 987 618 1034 559 q 857 678 941 678 l 653 678 q 496 618 569 678 q 406 475 424 559 q 435 331 388 391 q 566 271 482 271 l 770 271 m 509 0 q 202 139 312 0 q 135 475 93 278 q 345 810 176 671 q 711 949 514 949 l 914 949 q 1220 810 1111 949 q 1288 475 1329 671 q 1200 271 1264 363 l 1346 271 l 1085 0 l 509 0 z "},"r":{"ha":1153,"x_min":34,"x_max":1321,"o":"m 566 271 l 363 271 l 305 0 l 34 0 l 149 543 l 895 543 q 977 610 963 543 q 924 678 992 678 l 111 678 l 372 949 l 982 949 q 1249 610 1321 949 q 903 275 1184 305 l 1119 0 l 780 0 l 566 271 z "},"s":{"ha":1153,"x_min":34,"x_max":1321,"o":"m 445 339 q 172 647 106 339 q 575 949 236 949 l 1321 949 l 1060 678 l 517 678 q 443 647 450 678 q 503 610 435 610 l 909 610 q 1185 308 1249 610 q 780 0 1119 0 l 34 0 l 295 271 l 838 271 q 913 308 905 271 q 852 339 920 339 l 445 339 z "},"t":{"ha":1119,"x_min":111,"x_max":1321,"o":"m 682 0 l 410 0 l 555 678 l 111 678 l 372 949 l 1321 949 l 1060 678 l 826 678 l 682 0 z "},"u":{"ha":1153,"x_min":34,"x_max":1321,"o":"m 135 475 l 236 949 l 507 949 l 406 475 q 634 271 363 271 q 949 475 905 271 l 1050 949 l 1321 949 l 1220 475 q 576 0 1119 0 q 135 475 34 0 z "},"v":{"ha":1017,"x_min":134,"x_max":1287,"o":"m 339 0 l 134 949 l 406 949 l 559 237 l 1016 949 l 1287 949 l 678 0 l 339 0 z "},"w":{"ha":1695,"x_min":34,"x_max":1864,"o":"m 873 119 q 509 0 712 0 q 135 475 34 0 l 236 949 l 507 949 l 406 475 q 566 271 363 271 q 813 475 770 271 l 914 949 l 1185 949 l 1084 475 q 1244 271 1041 271 q 1491 475 1448 271 l 1592 949 l 1864 949 l 1763 475 q 1187 0 1662 0 q 873 119 983 0 z "},"x":{"ha":1085,"x_min":0,"x_max":1287,"o":"m 474 475 l 202 949 l 541 949 l 689 690 l 948 949 l 1287 949 l 813 475 l 1085 0 l 746 0 l 597 259 l 339 0 l 0 0 l 474 475 z "},"y":{"ha":1085,"x_min":202,"x_max":1287,"o":"m 502 448 l 202 949 l 509 949 l 687 678 l 979 949 l 1287 949 l 772 442 l 678 0 l 407 0 l 502 448 z "},"z":{"ha":1153,"x_min":34,"x_max":1321,"o":"m 1321 949 l 1263 678 l 515 271 l 1177 271 l 1119 0 l 34 0 l 92 271 l 772 678 l 111 678 l 372 949 l 1321 949 z "},"{":{"ha":678,"x_min":106,"x_max":875,"o":"m 299 610 q 875 1085 400 1085 l 817 814 q 570 610 614 814 l 513 339 q 673 136 470 136 l 615 -136 q 241 339 140 -136 l 106 339 l 163 610 l 299 610 z "},"|":{"ha":339,"x_min":5,"x_max":536,"o":"m 536 1085 l 276 -136 l 5 -136 l 264 1085 l 536 1085 z "},"}":{"ha":678,"x_min":5,"x_max":774,"o":"m 581 339 q 5 -136 479 -136 l 63 136 q 309 339 267 136 l 367 610 q 207 814 410 814 l 264 1085 q 638 610 739 1085 l 774 610 l 716 339 l 581 339 z "},"~":{"ha":746,"x_min":96,"x_max":846,"o":"m 96 294 l 154 565 q 348 599 263 599 q 493 565 433 599 q 587 543 534 543 q 846 633 692 543 l 789 361 q 529 271 634 271 q 435 294 476 271 q 290 328 375 328 q 96 294 205 328 z "},"¡":{"ha":339,"x_min":34,"x_max":490,"o":"m 435 610 l 305 0 l 34 0 l 163 610 l 435 610 m 372 949 q 459 910 428 949 q 478 814 490 870 q 418 718 466 758 q 314 678 370 678 q 226 718 258 678 q 207 814 195 758 q 267 910 219 870 q 372 949 315 949 z "},"£":{"ha":1153,"x_min":106,"x_max":1321,"o":"m 619 678 q 562 618 575 678 l 561 610 l 1045 610 l 987 339 l 479 339 l 465 270 l 1177 271 l 1119 0 l 136 0 l 208 339 l 106 339 l 163 610 l 275 610 q 745 949 401 949 l 1321 949 l 1263 678 l 619 678 z "},"¥":{"ha":1085,"x_min":29,"x_max":1287,"o":"m 486 475 l 202 949 l 509 949 l 687 678 l 979 949 l 1287 949 l 805 475 l 1186 475 l 1157 339 l 750 339 l 736 271 l 1143 271 l 1114 136 l 707 136 l 678 0 l 407 0 l 436 136 l 29 136 l 58 271 l 465 271 l 479 339 l 72 339 l 101 475 l 486 475 z "},"¨":{"ha":678,"x_min":267,"x_max":901,"o":"m 386 1017 q 298 1057 330 1017 q 279 1153 267 1097 q 339 1249 291 1209 q 444 1289 387 1289 q 531 1249 500 1289 q 550 1153 562 1209 q 490 1057 538 1097 q 386 1017 442 1017 m 725 1017 q 637 1057 669 1017 q 618 1153 606 1097 q 678 1249 630 1209 q 783 1289 726 1289 q 870 1249 839 1289 q 889 1153 901 1209 q 829 1057 878 1097 q 725 1017 781 1017 z "},"°":{"ha":339,"x_min":269,"x_max":565,"o":"m 386 1017 q 299 1060 330 1017 q 281 1162 269 1103 q 342 1265 294 1223 q 448 1308 391 1308 q 534 1265 504 1308 q 552 1162 565 1223 q 491 1060 540 1103 q 386 1017 442 1017 z "},"´":{"ha":475,"x_min":250,"x_max":729,"o":"m 522 1017 l 250 1017 l 458 1356 l 729 1356 l 522 1017 z "},"×":{"ha":826,"x_min":63,"x_max":965,"o":"m 457 245 l 370 136 l 63 136 l 358 475 l 208 814 l 514 814 l 556 703 l 655 813 l 965 814 l 665 473 l 821 136 l 506 136 l 457 245 z "},"÷":{"ha":746,"x_min":106,"x_max":842,"o":"m 842 610 l 784 339 l 106 339 l 163 610 l 842 610 m 517 678 q 430 718 461 678 q 410 814 398 758 q 471 910 422 870 q 575 949 519 949 q 663 910 631 949 q 682 814 694 870 q 622 718 669 758 q 517 678 574 678 m 373 0 q 286 40 317 0 q 267 136 254 79 q 326 232 278 192 q 431 271 374 271 q 518 232 487 271 q 538 136 549 192 q 477 40 526 79 q 373 0 429 0 z "},"ˆ":{"ha":746,"x_min":250,"x_max":928,"o":"m 865 1356 l 928 1017 l 657 1017 l 625 1187 l 522 1017 l 250 1017 l 458 1356 l 865 1356 z "},"ˇ":{"ha":746,"x_min":322,"x_max":1000,"o":"m 625 1187 l 729 1356 l 1000 1356 l 793 1017 l 386 1017 l 322 1356 l 593 1356 l 625 1187 z "},"ˉ":{"ha":610,"x_min":250,"x_max":850,"o":"m 850 1289 l 793 1017 l 250 1017 l 308 1289 l 850 1289 z "},"˙":{"ha":339,"x_min":269,"x_max":565,"o":"m 386 1017 q 299 1060 330 1017 q 281 1162 269 1103 q 342 1265 294 1223 q 448 1308 391 1308 q 534 1265 504 1308 q 552 1162 565 1223 q 491 1060 540 1103 q 386 1017 442 1017 z "},"˜":{"ha":746,"x_min":255,"x_max":1005,"o":"m 255 1040 l 313 1311 q 506 1345 421 1345 q 652 1311 591 1345 q 745 1289 692 1289 q 1005 1379 850 1289 l 947 1107 q 688 1017 793 1017 q 594 1040 635 1017 q 448 1074 533 1074 q 255 1040 363 1074 z "},"˝":{"ha":845,"x_min":163,"x_max":1013,"o":"m 435 610 l 163 610 l 372 949 l 643 949 l 435 610 m 805 610 l 534 610 l 742 949 l 1013 949 l 805 610 z "},"–":{"ha":746,"x_min":106,"x_max":842,"o":"m 842 610 l 784 339 l 106 339 l 163 610 l 842 610 z "},"—":{"ha":1356,"x_min":106,"x_max":1451,"o":"m 1451 610 l 1394 339 l 106 339 l 163 610 l 1451 610 z "},"‘":{"ha":339,"x_min":149,"x_max":507,"o":"m 507 949 l 420 543 l 149 543 l 236 949 l 507 949 z "},"’":{"ha":339,"x_min":149,"x_max":507,"o":"m 507 949 l 420 543 l 149 543 l 236 949 l 507 949 z "},"‚":{"ha":339,"x_min":-24,"x_max":334,"o":"m 334 136 l 248 -271 l -24 -271 l 63 136 l 334 136 z "},"“":{"ha":678,"x_min":149,"x_max":846,"o":"m 507 949 l 420 543 l 149 543 l 236 949 l 507 949 m 846 949 l 760 543 l 488 543 l 575 949 l 846 949 z "},"”":{"ha":678,"x_min":149,"x_max":846,"o":"m 507 949 l 420 543 l 149 543 l 236 949 l 507 949 m 846 949 l 760 543 l 488 543 l 575 949 l 846 949 z "},"„":{"ha":678,"x_min":-24,"x_max":673,"o":"m 334 136 l 248 -271 l -24 -271 l 63 136 l 334 136 m 673 136 l 587 -271 l 315 -271 l 402 136 l 673 136 z "},"•":{"ha":339,"x_min":123,"x_max":418,"o":"m 241 339 q 154 379 185 339 q 135 475 123 418 q 195 571 146 531 q 299 610 243 610 q 387 571 355 610 q 406 475 418 531 q 346 379 394 418 q 241 339 298 339 z "},"…":{"ha":1153,"x_min":51,"x_max":1160,"o":"m 983 0 q 896 40 927 0 q 877 136 865 79 q 937 232 888 192 q 1041 271 985 271 q 1128 232 1097 271 q 1148 136 1160 192 q 1088 40 1136 79 q 983 0 1040 0 m 576 0 q 489 40 520 0 q 470 136 458 79 q 530 232 481 192 q 634 271 578 271 q 722 232 690 271 q 741 136 753 192 q 681 40 729 79 q 576 0 633 0 m 170 0 q 82 40 113 0 q 63 136 51 79 q 123 232 75 192 q 227 271 171 271 q 315 232 283 271 q 334 136 346 192 q 274 40 322 79 q 170 0 226 0 z "},"‹":{"ha":814,"x_min":106,"x_max":982,"o":"m 163 610 l 982 949 l 924 678 l 406 475 l 838 271 l 780 0 l 106 339 l 163 610 z "},"›":{"ha":814,"x_min":34,"x_max":909,"o":"m 852 339 l 34 0 l 92 271 l 610 475 l 178 678 l 236 949 l 909 610 l 852 339 z "},"€":{"ha":1119,"x_min":79,"x_max":1287,"o":"m 412 371 q 435 331 420 350 q 566 271 482 271 l 1143 271 l 882 0 l 509 0 q 203 139 312 0 q 123 371 123 240 l 79 371 l 94 439 l 128 439 q 135 475 131 456 q 142 507 138 491 l 108 507 l 122 574 l 165 574 q 345 810 221 708 q 711 949 514 949 l 1287 949 l 1026 678 l 653 678 q 496 618 569 678 q 453 574 471 598 l 1139 574 l 1125 507 l 415 507 q 406 475 410 491 q 401 439 402 456 l 1111 439 l 1096 371 l 412 371 z "},"™":{"ha":796,"x_min":215,"x_max":964,"o":"m 420 853 l 369 610 l 272 610 l 323 853 l 215 853 l 236 950 l 551 950 l 530 853 l 420 853 m 964 950 l 892 610 l 795 610 l 829 772 l 746 610 l 649 610 l 635 772 l 601 610 l 504 610 l 576 950 l 697 950 l 729 756 l 843 950 l 964 950 z "},"−":{"ha":746,"x_min":106,"x_max":842,"o":"m 842 610 l 784 339 l 106 339 l 163 610 l 842 610 z "},"¿":{"ha":949,"x_min":34,"x_max":973,"o":"m 711 949 q 798 910 767 949 q 817 814 829 870 q 757 718 805 758 q 653 678 709 678 q 565 718 597 678 q 546 814 534 758 q 606 910 558 870 q 711 949 654 949 m 716 339 l 513 339 q 439 311 445 339 q 498 271 431 271 l 973 271 l 848 0 l 441 0 q 100 311 34 0 q 488 541 145 522 l 503 610 l 774 610 l 716 339 z "},"©":{"ha":1017,"x_min":93,"x_max":1126,"o":"m 509 0 q 202 139 312 0 q 135 475 93 278 q 345 810 176 671 q 711 949 514 949 q 1017 810 907 949 q 1084 475 1126 671 q 874 139 1042 278 q 509 0 705 0 m 523 68 q 836 187 692 68 q 1017 475 981 306 q 959 763 1053 644 q 696 882 865 882 q 383 763 527 882 q 203 475 239 644 q 260 187 167 306 q 523 68 354 68 m 652 678 l 797 678 l 743 563 l 627 563 q 561 537 591 563 q 522 476 530 512 q 535 415 515 440 q 591 389 555 389 l 735 389 l 682 273 l 566 273 q 435 333 482 273 q 406 476 389 392 q 496 619 424 559 q 652 678 568 678 z "},"®":{"ha":1017,"x_min":93,"x_max":1126,"o":"m 509 0 q 202 139 312 0 q 135 475 93 278 q 345 810 176 671 q 711 949 514 949 q 1017 810 907 949 q 1084 475 1126 671 q 874 139 1042 278 q 509 0 705 0 m 523 68 q 836 187 692 68 q 1017 475 981 306 q 959 763 1053 644 q 696 882 865 882 q 383 763 527 882 q 203 475 239 644 q 260 187 167 306 q 523 68 354 68 m 458 564 l 511 678 l 684 678 q 797 534 828 678 q 705 406 777 437 l 770 275 l 641 275 l 583 391 l 536 391 l 511 275 l 396 275 l 446 506 l 647 506 q 682 534 676 506 q 659 564 688 564 l 458 564 z "},"À":{"ha":1153,"x_min":34,"x_max":1321,"o":"m 949 475 q 721 678 992 678 q 406 475 450 678 l 305 0 l 34 0 l 135 475 q 779 949 236 949 q 1220 475 1321 949 l 1119 0 l 848 0 l 891 203 l 416 203 l 474 475 l 949 475 m 703 1017 l 610 1221 l 882 1221 l 906 1017 l 703 1017 z "},"Á":{"ha":1153,"x_min":34,"x_max":1321,"o":"m 949 475 q 721 678 992 678 q 406 475 450 678 l 305 0 l 34 0 l 135 475 q 779 949 236 949 q 1220 475 1321 949 l 1119 0 l 848 0 l 891 203 l 416 203 l 474 475 l 949 475 m 883 1017 l 680 1017 l 791 1221 l 1062 1221 l 883 1017 z "},"Â":{"ha":1153,"x_min":34,"x_max":1321,"o":"m 949 475 q 721 678 992 678 q 406 475 450 678 l 305 0 l 34 0 l 135 475 q 779 949 236 949 q 1220 475 1321 949 l 1119 0 l 848 0 l 891 203 l 416 203 l 474 475 l 949 475 m 725 1017 l 589 1017 l 768 1221 l 904 1221 l 996 1017 l 861 1017 l 814 1118 l 725 1017 z "},"Ã":{"ha":1153,"x_min":34,"x_max":1321,"o":"m 949 475 q 721 678 992 678 q 406 475 450 678 l 305 0 l 34 0 l 135 475 q 779 949 236 949 q 1220 475 1321 949 l 1119 0 l 848 0 l 891 203 l 416 203 l 474 475 l 949 475 m 793 1017 l 746 1118 l 657 1017 l 522 1017 l 701 1221 l 836 1221 l 882 1119 l 972 1221 l 1107 1221 l 928 1017 l 793 1017 z "},"Ä":{"ha":1153,"x_min":34,"x_max":1321,"o":"m 949 475 q 721 678 992 678 q 406 475 450 678 l 305 0 l 34 0 l 135 475 q 779 949 236 949 q 1220 475 1321 949 l 1119 0 l 848 0 l 891 203 l 416 203 l 474 475 l 949 475 m 657 1017 q 592 1047 615 1017 q 577 1119 568 1077 q 622 1191 586 1161 q 701 1221 659 1221 q 766 1191 743 1221 q 781 1119 789 1161 q 735 1047 772 1077 q 657 1017 699 1017 m 928 1017 q 863 1047 886 1017 q 848 1119 840 1077 q 893 1191 857 1161 q 972 1221 930 1221 q 1037 1191 1014 1221 q 1052 1119 1061 1161 q 1007 1047 1043 1077 q 928 1017 970 1017 z "},"Å":{"ha":1153,"x_min":34,"x_max":1308,"o":"m 787 987 q 840 1007 815 987 q 870 1055 864 1027 q 860 1102 876 1082 q 817 1122 844 1122 q 764 1102 789 1122 q 734 1055 740 1082 q 744 1007 728 1027 q 787 987 760 987 m 891 203 l 416 203 l 474 475 l 949 475 q 721 678 992 678 q 406 475 450 678 l 305 0 l 34 0 l 135 475 q 647 942 223 889 q 630 1051 617 988 q 706 1171 646 1122 q 836 1221 766 1221 q 946 1171 907 1221 q 969 1051 985 1122 q 907 942 956 988 q 1220 475 1308 889 l 1119 0 l 848 0 l 891 203 z "},"Æ":{"ha":1967,"x_min":34,"x_max":2137,"o":"m 1043 908 l 1052 949 l 2137 949 l 1876 678 l 1231 678 q 1236 610 1236 646 l 2064 610 l 1803 339 l 1191 339 l 1177 271 l 1992 271 l 1731 0 l 848 0 l 891 203 l 416 203 l 474 475 l 949 475 q 721 678 992 678 q 406 475 450 678 l 305 0 l 34 0 l 135 475 q 779 949 236 949 q 1043 908 939 949 z "},"Ç":{"ha":1119,"x_min":93,"x_max":1287,"o":"m 610 0 l 509 0 q 202 139 312 0 q 135 475 93 278 q 345 810 176 671 q 711 949 514 949 l 1287 949 l 1026 678 l 653 678 q 496 618 569 678 q 406 475 424 559 q 435 331 388 391 q 566 271 482 271 l 1143 271 l 882 0 l 678 0 l 664 -68 l 596 -68 l 610 0 z "},"È":{"ha":1153,"x_min":34,"x_max":1321,"o":"m 1321 949 l 1060 678 l 178 678 l 236 949 l 1321 949 m 1249 610 l 987 339 l 106 339 l 163 610 l 1249 610 m 1177 271 l 916 0 l 34 0 l 92 271 l 1177 271 m 703 1017 l 610 1221 l 882 1221 l 906 1017 l 703 1017 z "},"É":{"ha":1153,"x_min":34,"x_max":1321,"o":"m 1321 949 l 1060 678 l 178 678 l 236 949 l 1321 949 m 1249 610 l 987 339 l 106 339 l 163 610 l 1249 610 m 1177 271 l 916 0 l 34 0 l 92 271 l 1177 271 m 883 1017 l 680 1017 l 791 1221 l 1062 1221 l 883 1017 z "},"Ê":{"ha":1153,"x_min":34,"x_max":1321,"o":"m 1321 949 l 1060 678 l 178 678 l 236 949 l 1321 949 m 1249 610 l 987 339 l 106 339 l 163 610 l 1249 610 m 1177 271 l 916 0 l 34 0 l 92 271 l 1177 271 m 725 1017 l 589 1017 l 768 1221 l 904 1221 l 996 1017 l 861 1017 l 814 1118 l 725 1017 z "},"Ë":{"ha":1153,"x_min":34,"x_max":1321,"o":"m 1321 949 l 1060 678 l 178 678 l 236 949 l 1321 949 m 1249 610 l 987 339 l 106 339 l 163 610 l 1249 610 m 1177 271 l 916 0 l 34 0 l 92 271 l 1177 271 m 657 1017 q 592 1047 615 1017 q 577 1119 568 1077 q 622 1191 586 1161 q 701 1221 659 1221 q 766 1191 743 1221 q 781 1119 789 1161 q 735 1047 772 1077 q 657 1017 699 1017 m 928 1017 q 863 1047 886 1017 q 848 1119 840 1077 q 893 1191 857 1161 q 972 1221 930 1221 q 1037 1191 1014 1221 q 1052 1119 1061 1161 q 1007 1047 1043 1077 q 928 1017 970 1017 z "},"Ì":{"ha":339,"x_min":34,"x_max":507,"o":"m 507 949 l 305 0 l 34 0 l 236 949 l 507 949 m 296 1017 l 203 1221 l 475 1221 l 499 1017 l 296 1017 z "},"Í":{"ha":339,"x_min":34,"x_max":655,"o":"m 507 949 l 305 0 l 34 0 l 236 949 l 507 949 m 476 1017 l 273 1017 l 384 1221 l 655 1221 l 476 1017 z "},"Î":{"ha":339,"x_min":34,"x_max":589,"o":"m 507 949 l 305 0 l 34 0 l 236 949 l 507 949 m 318 1017 l 182 1017 l 361 1221 l 497 1221 l 589 1017 l 454 1017 l 407 1118 l 318 1017 z "},"Ï":{"ha":339,"x_min":34,"x_max":654,"o":"m 507 949 l 305 0 l 34 0 l 236 949 l 507 949 m 250 1017 q 185 1047 208 1017 q 170 1119 161 1077 q 215 1191 179 1161 q 294 1221 252 1221 q 359 1191 336 1221 q 374 1119 382 1161 q 329 1047 365 1077 q 250 1017 292 1017 m 522 1017 q 456 1047 479 1017 q 441 1119 433 1077 q 487 1191 450 1161 q 565 1221 523 1221 q 630 1191 607 1221 q 645 1119 654 1161 q 600 1047 636 1077 q 522 1017 564 1017 z "},"Ð":{"ha":1153,"x_min":19,"x_max":1261,"o":"m 392 407 l 363 271 l 702 271 q 858 331 786 271 q 949 475 930 391 q 920 618 966 559 q 789 678 873 678 l 111 678 l 372 949 l 846 949 q 1152 810 1043 949 q 1220 475 1261 671 q 1009 139 1178 278 q 644 0 841 0 l 34 0 l 121 407 l 19 407 l 47 543 l 726 543 l 697 407 l 392 407 z "},"Ñ":{"ha":1153,"x_min":34,"x_max":1321,"o":"m 420 543 l 305 0 l 34 0 l 236 949 l 507 949 l 935 407 l 1050 949 l 1321 949 l 1119 0 l 848 0 l 420 543 m 793 1017 l 746 1118 l 657 1017 l 522 1017 l 701 1221 l 836 1221 l 882 1119 l 972 1221 l 1107 1221 l 928 1017 l 793 1017 z "},"Ò":{"ha":1221,"x_min":93,"x_max":1329,"o":"m 914 949 q 1220 810 1111 949 q 1288 475 1329 671 q 1077 139 1246 278 q 712 0 909 0 l 509 0 q 202 139 312 0 q 135 475 93 278 q 345 810 176 671 q 711 949 514 949 l 914 949 m 770 271 q 926 331 854 271 q 1017 475 998 391 q 987 618 1034 559 q 857 678 941 678 l 653 678 q 496 618 569 678 q 406 475 424 559 q 435 331 388 391 q 566 271 482 271 l 770 271 m 736 1017 l 644 1221 l 916 1221 l 940 1017 l 736 1017 z "},"Ó":{"ha":1221,"x_min":93,"x_max":1329,"o":"m 914 949 q 1220 810 1111 949 q 1288 475 1329 671 q 1077 139 1246 278 q 712 0 909 0 l 509 0 q 202 139 312 0 q 135 475 93 278 q 345 810 176 671 q 711 949 514 949 l 914 949 m 770 271 q 926 331 854 271 q 1017 475 998 391 q 987 618 1034 559 q 857 678 941 678 l 653 678 q 496 618 569 678 q 406 475 424 559 q 435 331 388 391 q 566 271 482 271 l 770 271 m 917 1017 l 713 1017 l 825 1221 l 1096 1221 l 917 1017 z "},"Ô":{"ha":1221,"x_min":93,"x_max":1329,"o":"m 914 949 q 1220 810 1111 949 q 1288 475 1329 671 q 1077 139 1246 278 q 712 0 909 0 l 509 0 q 202 139 312 0 q 135 475 93 278 q 345 810 176 671 q 711 949 514 949 l 914 949 m 770 271 q 926 331 854 271 q 1017 475 998 391 q 987 618 1034 559 q 857 678 941 678 l 653 678 q 496 618 569 678 q 406 475 424 559 q 435 331 388 391 q 566 271 482 271 l 770 271 m 759 1017 l 623 1017 l 802 1221 l 938 1221 l 1030 1017 l 895 1017 l 848 1118 l 759 1017 z "},"Õ":{"ha":1221,"x_min":93,"x_max":1329,"o":"m 914 949 q 1220 810 1111 949 q 1288 475 1329 671 q 1077 139 1246 278 q 712 0 909 0 l 509 0 q 202 139 312 0 q 135 475 93 278 q 345 810 176 671 q 711 949 514 949 l 914 949 m 770 271 q 926 331 854 271 q 1017 475 998 391 q 987 618 1034 559 q 857 678 941 678 l 653 678 q 496 618 569 678 q 406 475 424 559 q 435 331 388 391 q 566 271 482 271 l 770 271 m 827 1017 l 780 1118 l 691 1017 l 555 1017 l 734 1221 l 870 1221 l 916 1119 l 1006 1221 l 1141 1221 l 962 1017 l 827 1017 z "},"Ö":{"ha":1221,"x_min":93,"x_max":1329,"o":"m 914 949 q 1220 810 1111 949 q 1288 475 1329 671 q 1077 139 1246 278 q 712 0 909 0 l 509 0 q 202 139 312 0 q 135 475 93 278 q 345 810 176 671 q 711 949 514 949 l 914 949 m 770 271 q 926 331 854 271 q 1017 475 998 391 q 987 618 1034 559 q 857 678 941 678 l 653 678 q 496 618 569 678 q 406 475 424 559 q 435 331 388 391 q 566 271 482 271 l 770 271 m 691 1017 q 626 1047 649 1017 q 611 1119 602 1077 q 656 1191 620 1161 q 734 1221 692 1221 q 800 1191 777 1221 q 814 1119 823 1161 q 769 1047 806 1077 q 691 1017 733 1017 m 962 1017 q 897 1047 920 1017 q 882 1119 873 1077 q 927 1191 891 1161 q 1006 1221 964 1221 q 1071 1191 1048 1221 q 1086 1119 1095 1161 q 1041 1047 1077 1077 q 962 1017 1004 1017 z "},"̀":{"ha":407,"x_min":294,"x_max":589,"o":"m 386 1017 l 294 1221 l 565 1221 l 589 1017 l 386 1017 z "},"́":{"ha":407,"x_min":250,"x_max":633,"o":"m 454 1017 l 250 1017 l 361 1221 l 633 1221 l 454 1017 z "},"̂":{"ha":475,"x_min":250,"x_max":657,"o":"m 386 1017 l 250 1017 l 429 1221 l 565 1221 l 657 1017 l 522 1017 l 475 1118 l 386 1017 z "},"̃":{"ha":610,"x_min":250,"x_max":836,"o":"m 522 1017 l 475 1118 l 386 1017 l 250 1017 l 429 1221 l 565 1221 l 611 1119 l 701 1221 l 836 1221 l 657 1017 l 522 1017 z "},"̇":{"ha":271,"x_min":263,"x_max":484,"o":"m 352 1017 q 287 1047 310 1017 q 272 1119 263 1077 q 317 1191 281 1161 q 395 1221 353 1221 q 461 1191 437 1221 q 475 1119 484 1161 q 430 1047 467 1077 q 352 1017 394 1017 z "},"̈":{"ha":543,"x_min":263,"x_max":755,"o":"m 352 1017 q 287 1047 310 1017 q 272 1119 263 1077 q 317 1191 281 1161 q 395 1221 353 1221 q 461 1191 437 1221 q 475 1119 484 1161 q 430 1047 467 1077 q 352 1017 394 1017 m 623 1017 q 558 1047 581 1017 q 543 1119 534 1077 q 588 1191 552 1161 q 667 1221 625 1221 q 732 1191 709 1221 q 747 1119 755 1161 q 702 1047 738 1077 q 623 1017 665 1017 z "},"̊":{"ha":407,"x_min":242,"x_max":612,"o":"m 391 882 q 281 931 320 882 q 257 1051 242 981 q 333 1171 273 1122 q 463 1221 393 1221 q 573 1171 534 1221 q 596 1051 612 1122 q 521 931 581 981 q 391 882 461 882 m 414 987 q 467 1007 442 987 q 497 1055 491 1027 q 487 1102 503 1082 q 444 1122 471 1122 q 391 1102 416 1122 q 361 1055 367 1082 q 371 1007 355 1027 q 414 987 387 987 z "},"Ø":{"ha":1221,"x_min":93,"x_max":1329,"o":"m 720 678 l 653 678 q 496 618 569 678 q 406 475 424 559 q 435 331 388 391 q 456 309 445 319 l 720 678 m 969 638 l 709 271 l 770 271 q 926 331 854 271 q 1017 475 998 391 q 987 618 1034 559 q 969 638 979 629 m 280 65 q 203 139 237 95 q 135 475 93 278 q 345 810 176 671 q 711 949 514 949 l 915 949 l 1012 1085 l 1287 1085 l 1144 883 q 1220 810 1186 854 q 1288 475 1329 671 q 1077 139 1246 278 q 712 0 909 0 l 516 0 l 419 -136 l 136 -136 l 280 65 z "},"Ù":{"ha":1153,"x_min":34,"x_max":1321,"o":"m 135 475 l 236 949 l 507 949 l 406 475 q 634 271 363 271 q 949 475 905 271 l 1050 949 l 1321 949 l 1220 475 q 576 0 1119 0 q 135 475 34 0 m 703 1017 l 610 1221 l 882 1221 l 906 1017 l 703 1017 z "},"Ú":{"ha":1153,"x_min":34,"x_max":1321,"o":"m 135 475 l 236 949 l 507 949 l 406 475 q 634 271 363 271 q 949 475 905 271 l 1050 949 l 1321 949 l 1220 475 q 576 0 1119 0 q 135 475 34 0 m 883 1017 l 680 1017 l 791 1221 l 1062 1221 l 883 1017 z "},"Û":{"ha":1153,"x_min":34,"x_max":1321,"o":"m 135 475 l 236 949 l 507 949 l 406 475 q 634 271 363 271 q 949 475 905 271 l 1050 949 l 1321 949 l 1220 475 q 576 0 1119 0 q 135 475 34 0 m 725 1017 l 589 1017 l 768 1221 l 904 1221 l 996 1017 l 861 1017 l 814 1118 l 725 1017 z "},"Ü":{"ha":1153,"x_min":34,"x_max":1321,"o":"m 135 475 l 236 949 l 507 949 l 406 475 q 634 271 363 271 q 949 475 905 271 l 1050 949 l 1321 949 l 1220 475 q 576 0 1119 0 q 135 475 34 0 m 657 1017 q 592 1047 615 1017 q 577 1119 568 1077 q 622 1191 586 1161 q 701 1221 659 1221 q 766 1191 743 1221 q 781 1119 789 1161 q 735 1047 772 1077 q 657 1017 699 1017 m 928 1017 q 863 1047 886 1017 q 848 1119 840 1077 q 893 1191 857 1161 q 972 1221 930 1221 q 1037 1191 1014 1221 q 1052 1119 1061 1161 q 1007 1047 1043 1077 q 928 1017 970 1017 z "},"Ý":{"ha":1085,"x_min":202,"x_max":1287,"o":"m 502 448 l 202 949 l 509 949 l 687 678 l 979 949 l 1287 949 l 772 442 l 678 0 l 407 0 l 502 448 m 849 1017 l 646 1017 l 757 1221 l 1028 1221 l 849 1017 z "},"Þ":{"ha":1153,"x_min":34,"x_max":1258,"o":"m 305 0 l 34 0 l 236 949 l 507 949 l 478 814 l 919 814 q 1186 475 1258 814 q 775 136 1114 136 l 334 136 l 305 0 m 392 407 l 833 407 q 915 475 901 407 q 861 543 929 543 l 420 543 l 392 407 z "},"ß":{"ha":1153,"x_min":34,"x_max":1287,"o":"m 305 0 l 34 0 l 149 543 l 861 543 q 943 610 929 543 q 890 678 958 678 l 113 678 l 376 949 l 948 949 q 1215 610 1287 949 q 1111 441 1192 500 q 1135 236 1166 382 q 717 -136 1056 -136 l 406 -136 l 640 136 l 775 136 q 864 236 843 136 q 818 339 886 339 l 377 339 l 305 0 z "},"à":{"ha":1153,"x_min":34,"x_max":1321,"o":"m 949 475 q 721 678 992 678 q 406 475 450 678 l 305 0 l 34 0 l 135 475 q 779 949 236 949 q 1220 475 1321 949 l 1119 0 l 848 0 l 891 203 l 416 203 l 474 475 l 949 475 m 703 1017 l 610 1221 l 882 1221 l 906 1017 l 703 1017 z "},"á":{"ha":1153,"x_min":34,"x_max":1321,"o":"m 949 475 q 721 678 992 678 q 406 475 450 678 l 305 0 l 34 0 l 135 475 q 779 949 236 949 q 1220 475 1321 949 l 1119 0 l 848 0 l 891 203 l 416 203 l 474 475 l 949 475 m 883 1017 l 680 1017 l 791 1221 l 1062 1221 l 883 1017 z "},"â":{"ha":1153,"x_min":34,"x_max":1321,"o":"m 949 475 q 721 678 992 678 q 406 475 450 678 l 305 0 l 34 0 l 135 475 q 779 949 236 949 q 1220 475 1321 949 l 1119 0 l 848 0 l 891 203 l 416 203 l 474 475 l 949 475 m 725 1017 l 589 1017 l 768 1221 l 904 1221 l 996 1017 l 861 1017 l 814 1118 l 725 1017 z "},"ã":{"ha":1153,"x_min":34,"x_max":1321,"o":"m 949 475 q 721 678 992 678 q 406 475 450 678 l 305 0 l 34 0 l 135 475 q 779 949 236 949 q 1220 475 1321 949 l 1119 0 l 848 0 l 891 203 l 416 203 l 474 475 l 949 475 m 793 1017 l 746 1118 l 657 1017 l 522 1017 l 701 1221 l 836 1221 l 882 1119 l 972 1221 l 1107 1221 l 928 1017 l 793 1017 z "},"ä":{"ha":1153,"x_min":34,"x_max":1321,"o":"m 949 475 q 721 678 992 678 q 406 475 450 678 l 305 0 l 34 0 l 135 475 q 779 949 236 949 q 1220 475 1321 949 l 1119 0 l 848 0 l 891 203 l 416 203 l 474 475 l 949 475 m 657 1017 q 592 1047 615 1017 q 577 1119 568 1077 q 622 1191 586 1161 q 701 1221 659 1221 q 766 1191 743 1221 q 781 1119 789 1161 q 735 1047 772 1077 q 657 1017 699 1017 m 928 1017 q 863 1047 886 1017 q 848 1119 840 1077 q 893 1191 857 1161 q 972 1221 930 1221 q 1037 1191 1014 1221 q 1052 1119 1061 1161 q 1007 1047 1043 1077 q 928 1017 970 1017 z "},"å":{"ha":1153,"x_min":34,"x_max":1308,"o":"m 787 987 q 840 1007 815 987 q 870 1055 864 1027 q 860 1102 876 1082 q 817 1122 844 1122 q 764 1102 789 1122 q 734 1055 740 1082 q 744 1007 728 1027 q 787 987 760 987 m 891 203 l 416 203 l 474 475 l 949 475 q 721 678 992 678 q 406 475 450 678 l 305 0 l 34 0 l 135 475 q 647 942 223 889 q 630 1051 617 988 q 706 1171 646 1122 q 836 1221 766 1221 q 946 1171 907 1221 q 969 1051 985 1122 q 907 942 956 988 q 1220 475 1308 889 l 1119 0 l 848 0 l 891 203 z "},"æ":{"ha":1967,"x_min":34,"x_max":2137,"o":"m 1043 908 l 1052 949 l 2137 949 l 1876 678 l 1231 678 q 1236 610 1236 646 l 2064 610 l 1803 339 l 1191 339 l 1177 271 l 1992 271 l 1731 0 l 848 0 l 891 203 l 416 203 l 474 475 l 949 475 q 721 678 992 678 q 406 475 450 678 l 305 0 l 34 0 l 135 475 q 779 949 236 949 q 1043 908 939 949 z "},"ç":{"ha":1119,"x_min":93,"x_max":1287,"o":"m 610 0 l 509 0 q 202 139 312 0 q 135 475 93 278 q 345 810 176 671 q 711 949 514 949 l 1287 949 l 1026 678 l 653 678 q 496 618 569 678 q 406 475 424 559 q 435 331 388 391 q 566 271 482 271 l 1143 271 l 882 0 l 678 0 l 664 -68 l 596 -68 l 610 0 z "},"è":{"ha":1153,"x_min":34,"x_max":1321,"o":"m 1321 949 l 1060 678 l 178 678 l 236 949 l 1321 949 m 1249 610 l 987 339 l 106 339 l 163 610 l 1249 610 m 1177 271 l 916 0 l 34 0 l 92 271 l 1177 271 m 703 1017 l 610 1221 l 882 1221 l 906 1017 l 703 1017 z "},"é":{"ha":1153,"x_min":34,"x_max":1321,"o":"m 1321 949 l 1060 678 l 178 678 l 236 949 l 1321 949 m 1249 610 l 987 339 l 106 339 l 163 610 l 1249 610 m 1177 271 l 916 0 l 34 0 l 92 271 l 1177 271 m 883 1017 l 680 1017 l 791 1221 l 1062 1221 l 883 1017 z "},"ê":{"ha":1153,"x_min":34,"x_max":1321,"o":"m 1321 949 l 1060 678 l 178 678 l 236 949 l 1321 949 m 1249 610 l 987 339 l 106 339 l 163 610 l 1249 610 m 1177 271 l 916 0 l 34 0 l 92 271 l 1177 271 m 725 1017 l 589 1017 l 768 1221 l 904 1221 l 996 1017 l 861 1017 l 814 1118 l 725 1017 z "},"ë":{"ha":1153,"x_min":34,"x_max":1321,"o":"m 1321 949 l 1060 678 l 178 678 l 236 949 l 1321 949 m 1249 610 l 987 339 l 106 339 l 163 610 l 1249 610 m 1177 271 l 916 0 l 34 0 l 92 271 l 1177 271 m 657 1017 q 592 1047 615 1017 q 577 1119 568 1077 q 622 1191 586 1161 q 701 1221 659 1221 q 766 1191 743 1221 q 781 1119 789 1161 q 735 1047 772 1077 q 657 1017 699 1017 m 928 1017 q 863 1047 886 1017 q 848 1119 840 1077 q 893 1191 857 1161 q 972 1221 930 1221 q 1037 1191 1014 1221 q 1052 1119 1061 1161 q 1007 1047 1043 1077 q 928 1017 970 1017 z "},"ì":{"ha":339,"x_min":34,"x_max":507,"o":"m 507 949 l 305 0 l 34 0 l 236 949 l 507 949 m 296 1017 l 203 1221 l 475 1221 l 499 1017 l 296 1017 z "},"í":{"ha":339,"x_min":34,"x_max":655,"o":"m 507 949 l 305 0 l 34 0 l 236 949 l 507 949 m 476 1017 l 273 1017 l 384 1221 l 655 1221 l 476 1017 z "},"î":{"ha":339,"x_min":34,"x_max":589,"o":"m 507 949 l 305 0 l 34 0 l 236 949 l 507 949 m 318 1017 l 182 1017 l 361 1221 l 497 1221 l 589 1017 l 454 1017 l 407 1118 l 318 1017 z "},"ï":{"ha":339,"x_min":34,"x_max":654,"o":"m 507 949 l 305 0 l 34 0 l 236 949 l 507 949 m 250 1017 q 185 1047 208 1017 q 170 1119 161 1077 q 215 1191 179 1161 q 294 1221 252 1221 q 359 1191 336 1221 q 374 1119 382 1161 q 329 1047 365 1077 q 250 1017 292 1017 m 522 1017 q 456 1047 479 1017 q 441 1119 433 1077 q 487 1191 450 1161 q 565 1221 523 1221 q 630 1191 607 1221 q 645 1119 654 1161 q 600 1047 636 1077 q 522 1017 564 1017 z "},"ð":{"ha":1356,"x_min":93,"x_max":1546,"o":"m 770 271 q 926 331 854 271 q 1017 475 998 391 q 987 618 1034 559 q 857 678 941 678 l 653 678 q 496 618 569 678 q 406 475 424 559 q 435 331 388 391 q 566 271 482 271 l 770 271 m 1288 475 q 1077 139 1246 278 q 712 0 909 0 l 509 0 q 202 139 312 0 q 135 475 93 278 q 345 810 176 671 q 711 949 514 949 l 914 949 q 1108 905 1025 949 l 1124 983 l 989 983 l 1003 1051 l 1139 1051 l 1154 1119 l 1425 1119 l 1410 1051 l 1546 1051 l 1531 983 l 1396 983 l 1288 475 z "},"ñ":{"ha":1153,"x_min":34,"x_max":1321,"o":"m 420 543 l 305 0 l 34 0 l 236 949 l 507 949 l 935 407 l 1050 949 l 1321 949 l 1119 0 l 848 0 l 420 543 m 793 1017 l 746 1118 l 657 1017 l 522 1017 l 701 1221 l 836 1221 l 882 1119 l 972 1221 l 1107 1221 l 928 1017 l 793 1017 z "},"ò":{"ha":1221,"x_min":93,"x_max":1329,"o":"m 914 949 q 1220 810 1111 949 q 1288 475 1329 671 q 1077 139 1246 278 q 712 0 909 0 l 509 0 q 202 139 312 0 q 135 475 93 278 q 345 810 176 671 q 711 949 514 949 l 914 949 m 770 271 q 926 331 854 271 q 1017 475 998 391 q 987 618 1034 559 q 857 678 941 678 l 653 678 q 496 618 569 678 q 406 475 424 559 q 435 331 388 391 q 566 271 482 271 l 770 271 m 736 1017 l 644 1221 l 916 1221 l 940 1017 l 736 1017 z "},"ó":{"ha":1221,"x_min":93,"x_max":1329,"o":"m 914 949 q 1220 810 1111 949 q 1288 475 1329 671 q 1077 139 1246 278 q 712 0 909 0 l 509 0 q 202 139 312 0 q 135 475 93 278 q 345 810 176 671 q 711 949 514 949 l 914 949 m 770 271 q 926 331 854 271 q 1017 475 998 391 q 987 618 1034 559 q 857 678 941 678 l 653 678 q 496 618 569 678 q 406 475 424 559 q 435 331 388 391 q 566 271 482 271 l 770 271 m 917 1017 l 713 1017 l 825 1221 l 1096 1221 l 917 1017 z "},"ô":{"ha":1221,"x_min":93,"x_max":1329,"o":"m 914 949 q 1220 810 1111 949 q 1288 475 1329 671 q 1077 139 1246 278 q 712 0 909 0 l 509 0 q 202 139 312 0 q 135 475 93 278 q 345 810 176 671 q 711 949 514 949 l 914 949 m 770 271 q 926 331 854 271 q 1017 475 998 391 q 987 618 1034 559 q 857 678 941 678 l 653 678 q 496 618 569 678 q 406 475 424 559 q 435 331 388 391 q 566 271 482 271 l 770 271 m 759 1017 l 623 1017 l 802 1221 l 938 1221 l 1030 1017 l 895 1017 l 848 1118 l 759 1017 z "},"õ":{"ha":1221,"x_min":93,"x_max":1329,"o":"m 914 949 q 1220 810 1111 949 q 1288 475 1329 671 q 1077 139 1246 278 q 712 0 909 0 l 509 0 q 202 139 312 0 q 135 475 93 278 q 345 810 176 671 q 711 949 514 949 l 914 949 m 770 271 q 926 331 854 271 q 1017 475 998 391 q 987 618 1034 559 q 857 678 941 678 l 653 678 q 496 618 569 678 q 406 475 424 559 q 435 331 388 391 q 566 271 482 271 l 770 271 m 827 1017 l 780 1118 l 691 1017 l 555 1017 l 734 1221 l 870 1221 l 916 1119 l 1006 1221 l 1141 1221 l 962 1017 l 827 1017 z "},"ö":{"ha":1221,"x_min":93,"x_max":1329,"o":"m 914 949 q 1220 810 1111 949 q 1288 475 1329 671 q 1077 139 1246 278 q 712 0 909 0 l 509 0 q 202 139 312 0 q 135 475 93 278 q 345 810 176 671 q 711 949 514 949 l 914 949 m 770 271 q 926 331 854 271 q 1017 475 998 391 q 987 618 1034 559 q 857 678 941 678 l 653 678 q 496 618 569 678 q 406 475 424 559 q 435 331 388 391 q 566 271 482 271 l 770 271 m 691 1017 q 626 1047 649 1017 q 611 1119 602 1077 q 656 1191 620 1161 q 734 1221 692 1221 q 800 1191 777 1221 q 814 1119 823 1161 q 769 1047 806 1077 q 691 1017 733 1017 m 962 1017 q 897 1047 920 1017 q 882 1119 873 1077 q 927 1191 891 1161 q 1006 1221 964 1221 q 1071 1191 1048 1221 q 1086 1119 1095 1161 q 1041 1047 1077 1077 q 962 1017 1004 1017 z "},"ø":{"ha":1221,"x_min":93,"x_max":1329,"o":"m 720 678 l 653 678 q 496 618 569 678 q 406 475 424 559 q 435 331 388 391 q 456 309 445 319 l 720 678 m 969 638 l 709 271 l 770 271 q 926 331 854 271 q 1017 475 998 391 q 987 618 1034 559 q 969 638 979 629 m 280 65 q 203 139 237 95 q 135 475 93 278 q 345 810 176 671 q 711 949 514 949 l 915 949 l 1012 1085 l 1287 1085 l 1144 883 q 1220 810 1186 854 q 1288 475 1329 671 q 1077 139 1246 278 q 712 0 909 0 l 516 0 l 419 -136 l 136 -136 l 280 65 z "},"ù":{"ha":1153,"x_min":34,"x_max":1321,"o":"m 135 475 l 236 949 l 507 949 l 406 475 q 634 271 363 271 q 949 475 905 271 l 1050 949 l 1321 949 l 1220 475 q 576 0 1119 0 q 135 475 34 0 m 703 1017 l 610 1221 l 882 1221 l 906 1017 l 703 1017 z "},"ú":{"ha":1153,"x_min":34,"x_max":1321,"o":"m 135 475 l 236 949 l 507 949 l 406 475 q 634 271 363 271 q 949 475 905 271 l 1050 949 l 1321 949 l 1220 475 q 576 0 1119 0 q 135 475 34 0 m 883 1017 l 680 1017 l 791 1221 l 1062 1221 l 883 1017 z "},"û":{"ha":1153,"x_min":34,"x_max":1321,"o":"m 135 475 l 236 949 l 507 949 l 406 475 q 634 271 363 271 q 949 475 905 271 l 1050 949 l 1321 949 l 1220 475 q 576 0 1119 0 q 135 475 34 0 m 725 1017 l 589 1017 l 768 1221 l 904 1221 l 996 1017 l 861 1017 l 814 1118 l 725 1017 z "},"ü":{"ha":1153,"x_min":34,"x_max":1321,"o":"m 135 475 l 236 949 l 507 949 l 406 475 q 634 271 363 271 q 949 475 905 271 l 1050 949 l 1321 949 l 1220 475 q 576 0 1119 0 q 135 475 34 0 m 657 1017 q 592 1047 615 1017 q 577 1119 568 1077 q 622 1191 586 1161 q 701 1221 659 1221 q 766 1191 743 1221 q 781 1119 789 1161 q 735 1047 772 1077 q 657 1017 699 1017 m 928 1017 q 863 1047 886 1017 q 848 1119 840 1077 q 893 1191 857 1161 q 972 1221 930 1221 q 1037 1191 1014 1221 q 1052 1119 1061 1161 q 1007 1047 1043 1077 q 928 1017 970 1017 z "},"ý":{"ha":1085,"x_min":202,"x_max":1287,"o":"m 502 448 l 202 949 l 509 949 l 687 678 l 979 949 l 1287 949 l 772 442 l 678 0 l 407 0 l 502 448 m 849 1017 l 646 1017 l 757 1221 l 1028 1221 l 849 1017 z "},"þ":{"ha":1153,"x_min":34,"x_max":1258,"o":"m 305 0 l 34 0 l 236 949 l 507 949 l 478 814 l 919 814 q 1186 475 1258 814 q 775 136 1114 136 l 334 136 l 305 0 m 392 407 l 833 407 q 915 475 901 407 q 861 543 929 543 l 420 543 l 392 407 z "},"ÿ":{"ha":1085,"x_min":202,"x_max":1287,"o":"m 502 448 l 202 949 l 509 949 l 687 678 l 979 949 l 1287 949 l 772 442 l 678 0 l 407 0 l 502 448 m 623 1017 q 558 1047 581 1017 q 543 1119 534 1077 q 588 1191 552 1161 q 667 1221 625 1221 q 732 1191 709 1221 q 747 1119 755 1161 q 702 1047 738 1077 q 623 1017 665 1017 m 895 1017 q 829 1047 852 1017 q 814 1119 806 1077 q 860 1191 823 1161 q 938 1221 896 1221 q 1003 1191 980 1221 q 1018 1119 1027 1161 q 973 1047 1009 1077 q 895 1017 937 1017 z "},"Œ":{"ha":2035,"x_min":93,"x_max":2205,"o":"m 770 271 q 926 331 854 271 q 1017 475 998 391 q 987 618 1034 559 q 857 678 941 678 l 653 678 q 496 618 569 678 q 406 475 424 559 q 435 331 388 391 q 566 271 482 271 l 770 271 m 1109 904 l 1120 949 l 2205 949 l 1944 678 l 1286 678 q 1298 610 1295 646 l 2132 610 l 1871 339 l 1240 339 q 1200 271 1223 304 l 2060 271 l 1799 0 l 918 0 l 927 45 q 712 0 824 0 l 509 0 q 202 139 312 0 q 135 475 93 278 q 345 810 176 671 q 711 949 514 949 l 914 949 q 1109 904 1026 949 z "},"œ":{"ha":2035,"x_min":93,"x_max":2205,"o":"m 770 271 q 926 331 854 271 q 1017 475 998 391 q 987 618 1034 559 q 857 678 941 678 l 653 678 q 496 618 569 678 q 406 475 424 559 q 435 331 388 391 q 566 271 482 271 l 770 271 m 1109 904 l 1120 949 l 2205 949 l 1944 678 l 1286 678 q 1298 610 1295 646 l 2132 610 l 1871 339 l 1240 339 q 1200 271 1223 304 l 2060 271 l 1799 0 l 918 0 l 927 45 q 712 0 824 0 l 509 0 q 202 139 312 0 q 135 475 93 278 q 345 810 176 671 q 711 949 514 949 l 914 949 q 1109 904 1026 949 z "}}}
